<?xml version="1.0" encoding="UTF-8"?>
<svg version="1.1" xmlns="http://www.w3.org/2000/svg" width="900" height="188">
<path d="M0 0 C297 0 594 0 900 0 C900 62.04 900 124.08 900 188 C603 188 306 188 0 188 C0 125.96 0 63.92 0 0 Z " fill="#FEFEFE" transform="translate(0,0)"/>
<path d="M0 0 C44.22 0 88.44 0 134 0 C134 44.22 134 88.44 134 134 C89.78 134 45.56 134 0 134 C0 89.78 0 45.56 0 0 Z " fill="#010101" transform="translate(18,31)"/>
<path d="M0 0 C6.27 0 12.54 0 19 0 C22.57769703 8.04981832 25.51448572 16.21318562 28.3125 24.5625 C28.67408203 25.63371094 29.03566406 26.70492187 29.40820312 27.80859375 C29.74400391 28.82179688 30.07980469 29.835 30.42578125 30.87890625 C30.88078003 32.24897827 30.88078003 32.24897827 31.3449707 33.64672852 C32 36 32 36 32 39 C32.66 39 33.32 39 34 39 C34.26941406 37.70964844 34.53882813 36.41929688 34.81640625 35.08984375 C35.91528593 30.14826787 37.37137981 25.37311145 38.9375 20.5625 C39.47197554 18.89993921 40.00583556 17.23718042 40.5390625 15.57421875 C40.79204102 14.78708496 41.04501953 13.99995117 41.30566406 13.18896484 C42.41776308 9.6829593 43.44742668 6.15386291 44.45703125 2.6171875 C45 1 45 1 46 0 C48.53049402 -0.07313567 51.03304837 -0.09247527 53.5625 -0.0625 C54.62887695 -0.05573242 54.62887695 -0.05573242 55.71679688 -0.04882812 C57.47790013 -0.03700864 59.23896036 -0.01907263 61 0 C65.03700611 12.65523547 69.05647416 25.31529475 73 38 C76.15924703 30.47863933 78.74654001 22.8433462 81.1875 15.0625 C81.88929165 12.84504219 82.59111314 10.62759382 83.29296875 8.41015625 C83.74965942 6.95814819 83.74965942 6.95814819 84.21557617 5.47680664 C84.79529386 3.64635661 85.39282458 1.82152627 86 0 C92.27 0 98.54 0 105 0 C102.75004543 10.12479556 102.75004543 10.12479556 101.26000977 14.46875 C100.7642318 15.92571289 100.7642318 15.92571289 100.25843811 17.41210938 C99.9063176 18.43111328 99.55419708 19.45011719 99.19140625 20.5 C98.8240184 21.57572266 98.45663055 22.65144531 98.07810974 23.75976562 C96.91073294 27.1747349 95.7367871 30.58740154 94.5625 34 C93.77754657 36.29151318 92.99303717 38.58317851 92.20898438 40.875 C91.10107317 44.11317763 89.99255308 47.35113004 88.88050842 50.58789062 C86.89001319 56.38217973 84.92806946 62.18462711 83 68 C77.06 68 71.12 68 65 68 C61.04 55.79 57.08 43.58 53 31 C50.54650986 38.68673951 50.54650986 38.68673951 48.09472656 46.37402344 C45.78480762 53.6016818 43.41251426 60.80592596 41 68 C35.06 68 29.12 68 23 68 C22.5875 66.78231934 22.175 65.56463867 21.75 64.31005859 C19.83633798 58.66401732 17.91890123 53.0192626 16 47.375 C15.65774384 46.36802063 15.31548767 45.36104126 14.96286011 44.32354736 C10.80110122 32.08888153 6.62427153 19.86772541 2.08398438 7.76708984 C0 2.18735163 0 2.18735163 0 0 Z " fill="#050505" transform="translate(471,62)"/>
<path d="M0 0 C6.27 0 12.54 0 19 0 C22.49593227 8.41310803 25.40395867 16.97788743 28.25 25.625 C28.71325883 27.02483322 29.17679857 28.4245735 29.640625 29.82421875 C30.76365159 33.21508246 31.88289133 36.60718137 33 40 C33.22139648 39.24493164 33.44279297 38.48986328 33.67089844 37.71191406 C34.69501658 34.22394459 35.72249101 30.73697201 36.75 27.25 C37.27207031 25.46916016 37.27207031 25.46916016 37.8046875 23.65234375 C44.27507267 1.72492733 44.27507267 1.72492733 46 0 C48.53049402 -0.07313567 51.03304837 -0.09247527 53.5625 -0.0625 C54.62887695 -0.05573242 54.62887695 -0.05573242 55.71679688 -0.04882812 C57.47790013 -0.03700864 59.23896036 -0.01907263 61 0 C61.30292969 0.969375 61.60585937 1.93875 61.91796875 2.9375 C62.11801514 3.5776001 62.31806152 4.2177002 62.52416992 4.87719727 C62.97105818 6.30733839 63.41783324 7.7375149 63.86450195 9.16772461 C65.03205521 12.90561024 66.20134266 16.64293236 67.375 20.37890625 C67.70528198 21.43174805 67.70528198 21.43174805 68.04223633 22.50585938 C68.46063483 23.83941554 68.87970192 25.17276219 69.29956055 26.50585938 C70.59979246 30.6536262 71.82091462 34.81666967 73 39 C76.08837029 31.1200386 78.60885326 23.05678568 81.1875 15 C81.65542145 13.54291173 82.12351891 12.08587998 82.59179688 10.62890625 C83.73022362 7.0866864 84.86502555 3.54333487 86 0 C92.27 0 98.54 0 105 0 C102.9094606 7.96672814 100.48432362 15.74084508 97.8046875 23.52734375 C97.41177521 24.67868301 97.01886292 25.83002228 96.61404419 27.01625061 C95.37086725 30.6577603 94.12324054 34.29772323 92.875 37.9375 C91.62023657 41.60247691 90.36645371 45.2677823 89.11453247 48.93373108 C88.33839482 51.2058603 87.56052538 53.47739886 86.7807312 55.74827576 C86.43011627 56.77356888 86.07950134 57.798862 85.71826172 58.85522461 C85.40976288 59.75470322 85.10126404 60.65418182 84.78341675 61.58091736 C84.09921716 63.69363114 83.5386087 65.84556521 83 68 C77.06 68 71.12 68 65 68 C63.45033978 63.37399618 61.90160629 58.7477033 60.35522461 54.12060547 C59.82907549 52.5471814 59.30238756 50.9739374 58.77514648 49.40087891 C58.01664177 47.13751798 57.26008814 44.87351287 56.50390625 42.609375 C56.26845596 41.90818542 56.03300568 41.20699585 55.79042053 40.48455811 C54.74410519 37.34597106 53.72770697 34.22942598 53 31 C51.55994483 35.29081348 50.12342678 39.58280336 48.6875 43.875 C48.28337891 45.07898438 47.87925781 46.28296875 47.46289062 47.5234375 C45.19170842 54.31851923 43.01562949 61.1246813 41 68 C35.06 68 29.12 68 23 68 C22.5875 66.8126123 22.175 65.62522461 21.75 64.40185547 C19.8353025 58.89221787 17.91784497 53.38354265 16 47.875 C15.65774384 46.89136475 15.31548767 45.90772949 14.96286011 44.89428711 C10.77361836 32.85961685 6.58153259 20.82965077 2.08398438 8.90576172 C0 3.31184674 0 3.31184674 0 0 Z " fill="#040404" transform="translate(180,62)"/>
<path d="M0 0 C8.85371986 5.70508865 15.60579376 13.2082357 18.39453125 23.54296875 C19.60131903 35.45841019 18.17315332 45.65457835 10.70703125 55.41796875 C3.57387072 62.89775345 -6.70136951 67.40632086 -16.98046875 67.98046875 C-26.81036091 67.56365353 -35.71830176 63.48479579 -42.60546875 56.54296875 C-50.59024298 46.80714754 -52.89840422 37.01499444 -51.92041016 24.62890625 C-50.71432502 16.64069588 -45.41814336 8.41687302 -39.01953125 3.59375 C-37.63894531 2.73330078 -37.63894531 2.73330078 -36.23046875 1.85546875 C-35.31523437 1.27410156 -34.4 0.69273438 -33.45703125 0.09375 C-23.20458145 -5.48189736 -10.26951875 -5.496579 0 0 Z " fill="#030303" transform="translate(412.60546875,64.45703125)"/>
<path d="M0 0 C8.85371986 5.70508865 15.60579376 13.2082357 18.39453125 23.54296875 C19.57095555 35.1586108 18.27492978 45.27826621 11.14453125 54.91796875 C3.41609529 62.29511217 -6.25164058 67.45308678 -17.10546875 68.04296875 C-26.8812457 67.49396678 -35.7448969 63.45798959 -42.60546875 56.54296875 C-50.59024298 46.80714754 -52.89840422 37.01499444 -51.92041016 24.62890625 C-50.71432502 16.64069588 -45.41814336 8.41687302 -39.01953125 3.59375 C-37.63894531 2.73330078 -37.63894531 2.73330078 -36.23046875 1.85546875 C-35.31523438 1.27410156 -34.4 0.69273438 -33.45703125 0.09375 C-23.20458145 -5.48189736 -10.26951875 -5.496579 0 0 Z " fill="#030303" transform="translate(627.60546875,64.45703125)"/>
<path d="M0 0 C8.2718635 6.20085202 14.20327227 12.96325849 17 23 C18.20678778 34.91544144 16.77862207 45.1116096 9.3125 54.875 C2.35071948 62.19379491 -7.80594584 66.94516454 -17.875 67.4375 C-27.84632549 67.08193335 -37.83820391 62.34614595 -44.75 55.1875 C-52.30887585 45.81449395 -54.37551526 35.83769587 -53.31347656 24.04052734 C-51.92871369 15.02662695 -46.01446775 7.49954641 -39 2 C-27.77650438 -5.39604325 -11.84003643 -7.47264566 0 0 Z " fill="#030303" transform="translate(337,65)"/>
<path d="M0 0 C6.27 0 12.54 0 19 0 C19 8.58 19 17.16 19 26 C26.26 26 33.52 26 41 26 C41 17.42 41 8.84 41 0 C47.27 0 53.54 0 60 0 C60 22.44 60 44.88 60 68 C53.73 68 47.46 68 41 68 C41 59.09 41 50.18 41 41 C33.74 41 26.48 41 19 41 C19 49.91 19 58.82 19 68 C12.73 68 6.46 68 0 68 C0 45.56 0 23.12 0 0 Z " fill="#050505" transform="translate(763,62)"/>
<path d="M0 0 C31 0 31 0 42 4 C47.96074269 10.67603181 48.35896125 16.07537831 48.28125 24.73046875 C47.76624047 30.71745457 45.67462565 34.40511843 41.375 38.5 C39 40 39 40 37 40 C41.42897472 47.09849373 46.51538324 53.66381307 51.68041992 60.23413086 C52.23705322 60.94964111 52.79368652 61.66515137 53.3671875 62.40234375 C53.87362793 63.04679443 54.38006836 63.69124512 54.90185547 64.35522461 C56 66 56 66 56 68 C35.43025637 69.79511372 35.43025637 69.79511372 30.16015625 65.90234375 C28.42908711 63.00636691 27.22536617 60.14024707 26 57 C24.7380687 55.07013739 23.42677423 53.17142337 22.0625 51.3125 C21.051875 49.889375 20.04125 48.46625 19 47 C18.67 53.93 18.34 60.86 18 68 C12.06 68 6.12 68 0 68 C0 45.56 0 23.12 0 0 Z " fill="#060606" transform="translate(653,62)"/>
<path d="M0 0 C4.95 0 9.9 0 15 0 C18.3 9.24 21.6 18.48 25 28 C27.97 18.76 30.94 9.52 34 0 C38.29 0 42.58 0 47 0 C47.56589844 1.85367188 48.13179687 3.70734375 48.71484375 5.6171875 C49.45563688 8.03648659 50.19652733 10.45575589 50.9375 12.875 C51.49727539 14.70998047 51.49727539 14.70998047 52.06835938 16.58203125 C52.42607422 17.74863281 52.78378906 18.91523437 53.15234375 20.1171875 C53.48226318 21.19597168 53.81218262 22.27475586 54.15209961 23.38623047 C54.91018312 25.94486564 54.91018312 25.94486564 56 28 C56.2673999 27.18732666 56.5347998 26.37465332 56.81030273 25.53735352 C57.80123307 22.53053361 58.79483725 19.52461479 59.7902832 16.51928711 C60.22105089 15.21690951 60.65074225 13.91417542 61.0793457 12.61108398 C61.69461363 10.74109627 62.31404059 8.87247858 62.93359375 7.00390625 C63.30540771 5.87799072 63.67722168 4.7520752 64.06030273 3.59204102 C65 1 65 1 66 0 C68.35313555 -0.07271741 70.70833668 -0.08370868 73.0625 -0.0625 C74.99802734 -0.04896484 74.99802734 -0.04896484 76.97265625 -0.03515625 C77.97167969 -0.02355469 78.97070312 -0.01195313 80 0 C77.68244147 10.68963847 74.04325559 20.84113904 70.375 31.125 C69.77035925 32.83577002 69.16618918 34.54670647 68.5625 36.2578125 C67.98740212 37.88296223 67.41189659 39.50796778 66.8359375 41.1328125 C66.43125748 42.27485641 66.43125748 42.27485641 66.0184021 43.43997192 C64.11866813 48.76266373 64.11866813 48.76266373 63 51 C58.38 51 53.76 51 49 51 C48.51789063 49.48148438 48.03578125 47.96296875 47.5390625 46.3984375 C46.90106377 44.39061798 46.26304171 42.38280587 45.625 40.375 C45.30789062 39.37597656 44.99078125 38.37695312 44.6640625 37.34765625 C43.14035742 32.55433401 41.61008891 27.76521262 40 23 C39.22841305 25.45809913 38.45755204 27.9164199 37.6875 30.375 C37.4596582 31.10219238 37.23181641 31.82938477 36.99707031 32.57861328 C35.47974762 37.43296977 34.0015968 42.29684818 32.578125 47.1796875 C32 49 32 49 31 51 C26.38 51 21.76 51 17 51 C7.26420254 22.88959889 7.26420254 22.88959889 2.875 9.75 C2.58036865 8.87061768 2.2857373 7.99123535 1.98217773 7.08520508 C0 1.12419902 0 1.12419902 0 0 Z " fill="#FAFAFA" transform="translate(45,73)"/>
<path d="M0 0 C1.20571655 0.00132935 1.20571655 0.00132935 2.43579102 0.00268555 C10.39521967 0.16089435 16.63423278 1.63423278 22.375 7.375 C20.395 11.335 18.415 15.295 16.375 19.375 C10.375 17.375 10.375 17.375 8.5 16.25 C5.0624237 14.83452741 2.07572976 15.13624324 -1.625 15.375 C-2.285 16.035 -2.945 16.695 -3.625 17.375 C-3.30301034 20.47426819 -3.30301034 20.47426819 -2.625 23.375 C-1.40683594 23.73851563 -0.18867187 24.10203125 1.06640625 24.4765625 C2.690387 24.98346978 4.31406941 25.49133352 5.9375 26 C6.73736328 26.23589844 7.53722656 26.47179687 8.36132812 26.71484375 C14.90274732 28.79741802 20.42640104 31.81668885 23.8125 38 C25.22563904 46.47883423 25.25317216 53.62258851 20.93359375 61.24609375 C17.48315637 65.95909719 12.87971541 68.60425238 7.375 70.375 C-2.61393805 71.2453634 -13.12452706 71.61396564 -21.3359375 64.99609375 C-22.75 63.625 -22.75 63.625 -24.625 61.375 C-22.645 57.415 -20.665 53.455 -18.625 49.375 C-15.38243096 50.18564226 -13.644041 50.84129661 -10.875 52.4375 C-6.49320894 54.66927045 -3.51301566 55.02673542 1.375 54.375 C4.06638543 52.93485074 4.06638543 52.93485074 5.375 50.375 C5.70408167 47.26572953 5.70408167 47.26572953 4.375 44.375 C0.70628791 41.69783172 -3.2058589 41.0124443 -7.5625 40.0625 C-13.89628723 38.56756885 -18.14243161 36.09046553 -21.78125 30.64453125 C-22.98894588 27.39605297 -22.96550371 24.4565282 -23 21 C-23.02835938 19.71351562 -23.05671875 18.42703125 -23.0859375 17.1015625 C-22.42030305 11.72007718 -19.84441009 7.97301018 -15.625 4.625 C-10.35222191 0.67041644 -6.58791261 -0.01284457 0 0 Z " fill="#030303" transform="translate(855.625,60.625)"/>
<path d="M0 0 C15.51 0 31.02 0 47 0 C47 5.28 47 10.56 47 16 C42.38 16 37.76 16 33 16 C33 33.16 33 50.32 33 68 C26.73 68 20.46 68 14 68 C14 50.84 14 33.68 14 16 C9.38 16 4.76 16 0 16 C0 10.72 0 5.44 0 0 Z " fill="#060606" transform="translate(708,62)"/>
<path d="M0 0 C6.6 0 13.2 0 20 0 C20 16.83 20 33.66 20 51 C26.93 51 33.86 51 41 51 C41 56.61 41 62.22 41 68 C27.47 68 13.94 68 0 68 C0 45.56 0 23.12 0 0 Z " fill="#0F0F0F" transform="translate(438,62)"/>
<path d="M0 0 C4.32090372 2.25886724 6.80259821 4.98837928 8.92578125 9.31640625 C10.30593404 14.14694103 10.41244205 18.01930524 8.30078125 22.62890625 C6.35929976 25.99637243 4.21338002 28.17946705 0.92578125 30.31640625 C0.32765625 30.72890625 -0.27046875 31.14140625 -0.88671875 31.56640625 C-4.95203878 32.96023026 -8.92893319 33.05357228 -12.97265625 31.6640625 C-17.55622972 29.33224456 -21.08339657 26.1084738 -23.07421875 21.31640625 C-23.95880907 15.9778261 -23.78252621 11.75925479 -21.38671875 6.87890625 C-15.30787777 0.14289327 -9.05208334 -2.98326664 0 0 Z " fill="#FAFAFA" transform="translate(326.07421875,80.68359375)"/>
<path d="M0 0 C4.05295051 2.32175009 6.33246494 4.94628316 7.6875 9.4375 C8.50904442 15.3960578 8.18439446 20.37303216 4.6875 25.4375 C2.25 27.6875 2.25 27.6875 -0.3125 29.4375 C-0.910625 29.85 -1.50875 30.2625 -2.125 30.6875 C-6.18648433 32.08000891 -10.18704092 32.20721358 -14.2109375 30.75 C-18.35338055 28.57928748 -22.41133052 25.82028451 -24.3125 21.4375 C-25.16685939 15.55441121 -25.15286097 10.353523 -22.75 4.875 C-16.02648054 -1.84851946 -8.88519047 -3.81501673 0 0 Z " fill="#FBFBFB" transform="translate(619.3125,81.5625)"/>
<path d="M0 0 C4.05295051 2.32175009 6.33246494 4.94628316 7.6875 9.4375 C8.50794121 15.38805633 8.20354672 20.39783304 4.6875 25.4375 C0.76901853 29.37739393 -2.44085036 31.2815292 -8.0625 31.75 C-12.83502495 31.67981581 -15.43687123 30.19515893 -19.3125 27.4375 C-24.19803355 22.03769976 -24.67155148 18.57920369 -24.5859375 11.421875 C-24.21377272 7.35996227 -23.15500919 5.35289404 -20.3125 2.4375 C-13.82958597 -2.39290653 -7.52100034 -3.2292771 0 0 Z " fill="#FBFBFB" transform="translate(404.3125,81.5625)"/>
<path d="M0 0 C7.25581395 -0.48372093 7.25581395 -0.48372093 10.5 1.625 C12.46942769 4.74326051 12.67927401 6.37720527 12 10 C9.9375 12.375 9.9375 12.375 7 14 C4.69 14 2.38 14 0 14 C0 9.38 0 4.76 0 0 Z " fill="#F8F8F8" transform="translate(671,78)"/>
</svg>
